<svg xmlns="http://www.w3.org/2000/svg"
xmlns:xlink="http://www.w3.org/1999/xlink"
version="1.1" baseProfile="full" onload="init()">
	<style>
		<![CDATA[
		#container{
		fill: #1B6281;
		}

		#clockFace1, #clockFace2, #centerDot, #minHand, #hourHand{
		stroke: #BE2525;
		}

		#minHand, #hourHand{
		fill: ;
		stroke-width: 2px;
		}

		#secHand{
		fill: red;
		}

		#minHand{

		}

		#hourHand{

		}

		#clockFace1, #clockFace2{
		fill: white;
		stroke-width: 3%;
		}

		#centerDot{
		fill: #BE2525;
		stroke-width: 2px;
		}
		
		#sign{
			stroke: red;
		}

		.test{
		stroke: clear;
		}
		//]]>
	</style>
	<script>
		<![CDATA[
		var centerX;
		var centerY;

		function init(){
		// get the center
		var container = document.getElementById("container").getBBox();
		centerX = container.width/2;
		centerY = container.height/2;

		// get the time
		var now = new Date();
		var hour = now.getHours();
		var minute = now.getMinutes();
		var second = now.getSeconds();
		console.log(now);

		var secStart = second*6;
		var minStart = (minute*6)+(second/10); // minute plus a tenth of a second
		var hourStart = (hour*30)+(minute/2);  // hour plus have a minute, hope thats good

		// calcuate durations
		var secTime = 60;
		var minTime = secTime*60;
		var hourTime = minTime*60;

		// rotate the hands
		rotateHand("secHand", secStart, secTime+"s");
		rotateHand("minHand", minStart, minTime+"s");
		rotateHand("hourHand", hourStart, hourTime+"s");
		}

		function rotateHand(hand, start, dur){
		// get the hand
		var hand = document.getElementById(hand);
		// make the animation
		var aniElem = getAnimate(start, dur);
		// attach it to the hand
		hand.appendChild(aniElem);
		}

		function getAnimate(start, dur){
		// get the rotate template and clone it
		var aniElem = document.getElementById('rotate').cloneNode(false);
		// remove the id
		aniElem.removeAttribute("id");
		// add from, to, and duration
		aniElem.setAttributeNS(null, "from", start+","+centerX+","+centerY);
		aniElem.setAttributeNS(null, "to", (start+360)+","+centerX+","+centerY);
		aniElem.setAttributeNS(null, "dur", dur);
		// return the animation
		return aniElem;
		}

		//]]>
	</script>
	<defs>
		<animateTransform id="rotate" attributeName="transform" type="rotate"
		begin="0s" dur="60s" repeatCount="indefinite" />
		<g id="sign">

			<g>
				<g>
					<path d="M136.034,350.259c0.44,15.631-5.25,31.437-11.183,45.651c-6.322,15.148-14.371,30.803-25.627,42.926
					c0.581,0.016,1.162,0.03,1.742,0.045c4.417-14.708,10.705-28.762,17.361-42.573c6.079-12.611,11.216-25.324,16.417-38.316
					c3.634-9.08,6.692-16.489,15.844-20.548c7.539-3.344,16.101-4.54,24.277-4.871c11.976-0.485,34.099,1.096,37.016,16.096
					c3.127,16.083-20.565,22.519-31.783,25.279c-20.315,4.998-41.847,6.472-62.725,6.499c-0.729,0.001-2.054,1.11-0.748,1.108
					c14.719-0.019,29.488-1.019,44.072-2.997c15.125-2.051,32.419-4.843,45.093-13.991c9.427-6.805,11.288-19.141,1.211-26.358
					c-11.229-8.042-28.307-7.714-41.315-5.848c-6.506,0.933-12.998,2.667-18.845,5.713c-6.977,3.636-9.714,10.095-12.752,17.081
					c-2.964,6.816-5.377,13.868-8.112,20.777c-2.972,7.511-6.716,14.654-10.219,21.923c-6.444,13.369-12.45,27.031-16.725,41.265
					c-0.225,0.748,1.5,0.306,1.742,0.045c10.839-11.675,18.472-26.363,24.863-40.828c6.621-14.981,12.795-31.977,12.327-48.595
					C137.948,349.117,136.013,349.503,136.034,350.259L136.034,350.259z"/>
				</g>
			</g>
			<g>
				<g>
					<path d="M126.551,436.107c14.336-6.688,34.989-15.95,29.415-35.366c-0.108-0.376-1.33,0.058-1.517,0.151
					c-5.828,2.931-9.247,8.681-9.608,15.149c-0.341,6.112,3.547,10.255,9.596,9.822c13.485-0.965,17.479-18.05,29.571-21.75
					c4.229-1.294,6.545,3.751,7.612,6.82c1.606,4.627,2.258,9.458-0.24,13.842c-4.098,7.191-19.075,12.585-23.747,3.336
					c-3.262-6.457,2.75-12.653,8.292-14.76c5.793-2.201,13.25-2.221,18.989,0.197c9.35,3.938,0.329,11.478-4.648,14.438
					c0.567-0.082,1.134-0.165,1.701-0.247c0.288-20.692,14.838-37.421,27.313-52.545c12.461-15.109,26.355-31.241,28.688-51.455
					c0.034-0.295-1.75,0.087-1.917,0.435c-6.348,13.214-13.176,26.19-19.479,39.426c-5.229,10.98-9.235,22.254-13.549,33.578
					c-1.596,4.189-3.255,8.352-4.525,12.655c-0.724,2.453-1.866,6.04-0.46,8.423c2.259,3.83,6.832,4.592,10.512,2.734
					c4.934-2.49,7.733-8.847,9.951-13.548c2.435-5.161,3.997-10.871,6.821-15.832c2.019-3.545,8.987-4.301,11.071-0.476
					c1.273,2.337,1.088,5.485,0.95,8.041c-0.292,5.41-2.157,10.686-2.306,16.08c-0.003,0.112,0.29,0.12,0.335,0.119
					c12.277-0.307,25.409-6.424,32.582-16.555c-0.634,0.118-1.268,0.235-1.902,0.354c-3.343,5.449-11.67,11.744-8.687,18.871
					c1.882,4.497,7.939,4.06,11.849,3.438c8.729-1.386,23.418-5.257,25.443-15.338c3.496-17.4-32.153-16.866-30.62-3.89
					c0.036,0.064,0.092,0.099,0.169,0.104c11.597,1.831,23.728,1.406,35.304-0.379c10.849-1.673,22.441-4.324,31.364-11.068
					c0.389-0.293-1.385-0.102-1.742,0.169c-13.652,10.319-34.144,11.831-50.656,11.613c-3.895-0.052-7.785-0.352-11.641-0.896
					c-2.59-0.366,0.275-4.318,1.043-5.047c3.931-3.729,11.059-3.437,15.926-2.242c4.254,1.044,7.982,3.793,8.958,8.212
					c1.499,6.791-3.751,10.848-9.062,13.568c-5.757,2.949-16.005,7.131-22.3,3.734c-8.821-4.76,3.85-16.795,6.554-21.203
					c0.132-0.216-1.606-0.065-1.902,0.354c-4.392,6.202-10.842,10.385-17.844,13.138c-1.215,0.479-11.322,3.382-11.202,1.68
					c0.105-1.482,0.429-2.968,0.693-4.427c1.032-5.699,2.662-12.151,1.048-17.876c-1.343-4.765-6.495-4.261-10.19-2.775
					c-5.679,2.283-6.31,5.376-8.523,10.856c-2.673,6.617-5.399,13.938-10.377,19.209c-3.118,3.303-6.32,2.343-9.145-0.604
					c-2.838-2.962-0.189-8.823,0.877-12.051c8.266-25.023,19.692-48.469,31.435-72.014c1.737-3.482,3.444-6.98,5.13-10.488
					c-0.639,0.145-1.278,0.29-1.917,0.435c-2.424,21.004-17.411,37.636-30.311,53.295c-12.023,14.594-25.413,30.836-25.689,50.705
					c-0.005,0.394,1.56-0.163,1.701-0.247c3.522-2.096,10.085-5.834,9.282-10.857c-0.624-3.898-6.42-5.198-9.542-5.721
					c-8.549-1.431-21.849,0.505-25.725,9.511c-2.417,5.616,0.712,11.103,6.449,12.426c5.593,1.29,12.082-1.073,16.61-4.247
					c7.025-4.924,7.006-12.188,4.396-19.702c-1.627-4.684-5.326-7.427-10.193-5.598c-9.139,3.436-14.405,12.874-21.626,18.903
					c-5.896,4.923-13.334,2.262-14.5-4.854c-1.067-6.518,2.858-13.846,8.665-16.765c-0.506,0.051-1.011,0.101-1.517,0.151
					c5.467,19.044-14.459,28.045-28.585,34.634C124.295,436.431,126.117,436.31,126.551,436.107L126.551,436.107z"/>
				</g>
			</g>
			<g>
				<g>
					<path d="M383.047,339.169c-6.099,8.409-15.671,14.592-26.381,12.047c-6.552-1.557-11.111-6.991-11.232-13.706
					c-0.201-11.276,11.169-20.566,19.307-26.479c6.823-4.958,20.32-13.594,26.862-4.178c5.226,7.52,4.022,19.964,3.53,28.584
					c-0.672,11.792-3.036,23.469-6.226,34.82c-6.241,22.211-16.48,44.364-31.782,61.814c0.609-0.08,1.219-0.16,1.828-0.24
					c5.596-21.329,19.448-38.61,28.613-58.319c8.394-18.05,13.97-37.782,26.387-53.681c-0.64,0.143-1.279,0.285-1.919,0.428
					c3.714,34.563-20.581,64.205-23,98c-0.032,0.442,1.739-0.182,1.919-0.428c18.639-25.614,9.676-62.774,30.922-86.902
					c-0.613,0.11-1.228,0.22-1.841,0.33c0.618,3.904-0.171,8.148-0.674,12.02c-0.945,7.267-2.255,14.489-3.548,21.7
					c-2.435,13.564-5.316,27.112-6.963,40.803c-0.239,1.989-1.413,6.739,0.136,8.477c1.753,1.967,6.342-0.969,7.683-2.004
					c5.734-4.428,10.271-10.41,14.883-15.938c3.812-4.567,8.334-11.759,14.007-14.186c-0.508,0.043-1.016,0.085-1.523,0.128
					c2.648,7.128,3.629,17.699,1.03,24.884c-2.544,7.037-9.038-0.018-10.31-3.946c-1.636-5.054-0.737-14.15,5.326-15.894
					c-0.349-0.014-0.698-0.029-1.047-0.043c3.399,8.549,4.706,30.652,19.481,23.974c5.082-2.297,6.275-9.119,6.95-13.991
					c0.932-6.721,0.011-13.784,1.487-20.41c-0.621,0.166-1.242,0.333-1.863,0.499c4.55,4.172,6.822,10.948,8.061,16.822
					c0.689,3.271,0.861,6.711,0.076,9.976c-0.348,1.447-1.087,2.733-2.079,3.831c-0.393,0.435-4.071,2.471-1.315,0.63
					c1.27-0.848,2.619-1.587,3.964-2.304c5.395-2.877,11.709-4.443,16.587-8.232c6.123-4.756,7.474-11.908,7.583-19.312
					c-0.644,0.172-1.288,0.345-1.932,0.518c5.998,8.903,8.146,21.173-5.115,24.438c-0.265,0.065-1.411,0.649-0.545,0.699
					c16.064,0.924,32.092-0.064,47.707-4.094c1.131-0.292,0.965-0.896-0.162-0.605c-8.986,2.319-18.104,3.586-27.365,4.087
					c-5.025,0.272-10.063,0.205-15.089,0.021c0.206,0.007-3.342,0.27-2.687,0.063c1.357-0.43,2.612-0.918,3.887-1.541
					c9.8-4.788,6.046-16.542,1.301-23.585c-0.272-0.404-1.925,0.017-1.932,0.518c-0.137,9.246-2.489,16.647-11.002,21.105
					c-6.294,3.297-12.921,5.446-18.772,9.604c-0.438,0.313-0.06,0.467,0.322,0.423c15.948-1.827,8.038-26.65,0.328-33.722
					c-0.299-0.274-1.771,0.085-1.863,0.499c-2.174,9.757,0.443,20.187-3.901,29.569c-1.842,3.978-5.828,5.842-9.975,3.802
					c-2.907-1.431-4.508-4.702-5.667-7.549c-2.132-5.232-2.454-11.01-4.538-16.25c-0.116-0.294-0.854-0.099-1.047-0.043
					c-10.954,3.151-10.247,26.42,2.271,24.195c9.997-1.776,6.108-22.873,3.775-29.151c-0.154-0.415-1.292,0.029-1.523,0.128
					c-3.998,1.71-7.039,5.709-9.815,8.884c-4.709,5.387-9.102,11.043-13.973,16.292c-1.427,1.537-9.818,10.426-10.272,4.882
					c-0.336-4.112,0.6-8.513,1.207-12.553c2.008-13.352,4.709-26.598,7.046-39.894c1.022-5.819,1.998-11.65,2.76-17.51
					c0.471-3.62,1.148-7.583,0.571-11.229c-0.074-0.469-1.66,0.125-1.841,0.33c-21.333,24.227-12.382,61.405-31.078,87.098
					c0.64-0.143,1.279-0.285,1.919-0.428c2.419-33.795,26.716-63.42,23-98c-0.056-0.516-1.737,0.196-1.919,0.428
					c-12.379,15.851-18.163,35.602-26.387,53.681c-9.011,19.812-23.006,36.947-28.613,58.319c-0.133,0.509,1.622-0.005,1.828-0.24
					c15.77-17.981,25.93-40.625,32.352-63.483c3.199-11.384,5.245-23.117,5.918-34.925c0.51-8.931,1.313-21.211-4.68-28.61
					c-3.99-4.926-11.242-3.088-16.23-1.145c-10.118,3.94-19.742,11.245-26.572,19.596c-4.673,5.714-8.073,13.581-4.824,20.766
					c2.53,5.595,8.849,8.102,14.597,8.49c10.362,0.701,19.687-5.745,25.519-13.786C385.091,338.641,383.383,338.706,383.047,339.169
					L383.047,339.169z"/>
				</g>
			</g>
		</g>
	</defs>
	<!-- 	Build the container -->
	<rect x="0" y="0" id="container" height="100%" width="100%" fill="none"/>
	<!-- 	build the face for the clock -->
	<circle id="clockFace1" cx="50%" cy="50%" r="30%" />
	<circle id="clockFace2" cx="50%" cy="50%" r="30%"
	stroke-dasharray="1%,2.91%,0.03%,2.91%,0.03%,2.91%,0.03%,2.91%,0.03%,2.91%"/>
	<!-- Time to sign -->
	<use xlink:href="#sign"/>
	
	<!-- 	hour hand -->
	<rect id="hourHand" x="49%" y="30%" rx="1%" ry="2%" width="2%" height="20%"/>
	<!-- 	minute Hand -->
	<rect id="minHand" x="49.75%" y="20%" ry="1%" width="1%" height="30%"/>
	<!-- 	Second Hand -->
	<rect id="secHand" x="49.9%" y="13%" width="0.2%" height="37%"/>
	<!-- 	center dot -->
	<circle id="centerDot" cx="50%" cy="50%" r="1.4%"/>
	<!-- 	grid lines for testing and positioning-->
	<line class="test" x1="50%" y1="100%" x2="50%"  y2="0%;" />
	<line class="test" x1="100%" y1="100%" x2="0%"  y2="100%;" />
	<line class="test" x1="0" y1="100%" x2="100%"  y2="50%;" />
	<line class="test" x1="0" y1="50%" x2="100%" y2="50%" />
</svg>
